<mxfile host="app.diagrams.net" modified="2024-09-11T10:52:36.793Z" agent="Mozilla/5.0 (Macintosh; Intel Mac OS X 10_15_7) AppleWebKit/537.36 (KHTML, like Gecko) Chrome/128.0.0.0 Safari/537.36" version="23.1.7" etag="jrRe6UuorEleDXr5Qoon" type="github">
  <diagram name="페이지-1" id="-D11N_w7UmBhfW8fIxkT">
    <mxGraphModel>
      <root>
        <mxCell id="0" />
        <mxCell id="1" parent="0" />
      </root>
    </mxGraphModel>
  </diagram>
</mxfile>
